PathFileType  4	(X/Y/Z) /dataNAS/people/anoopai/OpenCap/opencap-core/Examples/Data/88c07931-43a0-4e08-ab4a-30f03d0e7de7/MarkerData/PreAugmentation
DataRate	CameraRate	NumFrames	NumMarkers	Units	OrigDataRate	OrigDataStartFrame	OrigNumFrames
60.0	60.0	10	20	m	60.0	58	76
Frame#	Time	Neck			RShoulder			RElbow			RWrist			LShoulder			LElbow			LWrist			midHip			RHip			RKnee			RAnkle			LHip			LKnee			LAnkle			LBigToe			LSmallToe			LHeel			RBigToe			RSmallToe			RHeel			
		X1	Y1	Z1	X2	Y2	Z2	X3	Y3	Z3	X4	Y4	Z4	X5	Y5	Z5	X6	Y6	Z6	X7	Y7	Z7	X8	Y8	Z8	X9	Y9	Z9	X10	Y10	Z10	X11	Y11	Z11	X12	Y12	Z12	X13	Y13	Z13	X14	Y14	Z14	X15	Y15	Z15	X16	Y16	Z16	X17	Y17	Z17	X18	Y18	Z18	X19	Y19	Z19	X20	Y20	Z20	

58	0.9500000	0.2670900	1.1347700	-0.2309300	0.2843100	1.1369000	-0.0544300	0.3356200	0.9241400	0.1232600	0.4177100	0.7536100	0.3207700	0.2600000	1.1310900	-0.4100800	0.3089200	0.9473200	-0.5953200	0.3786500	0.7724300	-0.7853900	0.2697600	0.5865900	-0.2142700	0.2911700	0.5930400	-0.0982100	0.1876500	0.2124200	-0.0678800	0.1324400	-0.1801300	-0.0381700	0.2532600	0.5807200	-0.3319600	0.1503100	0.2132900	-0.3353400	0.0908900	-0.1724600	-0.3707200	0.2623300	-0.2304300	-0.4388300	0.2570600	-0.2291700	-0.4368600	0.0527200	-0.2061100	-0.3569600	0.3180000	-0.2330700	-0.0012400	0.3141800	-0.2306800	-0.0015700	0.0960100	-0.2104200	-0.0384200
59	0.9666667	0.2671200	1.1347200	-0.2309100	0.2842800	1.1368900	-0.0544100	0.3355900	0.9242000	0.1231800	0.4176600	0.7537100	0.3207200	0.2600800	1.1310000	-0.4100600	0.3089300	0.9472500	-0.5953400	0.3785600	0.7723500	-0.7855500	0.2698000	0.5868900	-0.2142600	0.2911900	0.5933600	-0.0981800	0.1876900	0.2124000	-0.0678900	0.1324300	-0.1801600	-0.0381000	0.2533100	0.5811100	-0.3319600	0.1502600	0.2131200	-0.3353400	0.0908100	-0.1724800	-0.3707400	0.2622600	-0.2304200	-0.4386700	0.2569900	-0.2291500	-0.4367000	0.0524700	-0.2060600	-0.3570500	0.3181000	-0.2330900	-0.0013700	0.3142900	-0.2306900	-0.0017000	0.0960400	-0.2105100	-0.0383700
60	0.9833333	0.2671600	1.1346700	-0.2308900	0.2842700	1.1369000	-0.0543800	0.3354900	0.9242800	0.1230500	0.4176200	0.7537800	0.3206500	0.2601600	1.1309100	-0.4100600	0.3089300	0.9471500	-0.5953000	0.3785300	0.7723300	-0.7857300	0.2698300	0.5871400	-0.2142700	0.2912300	0.5936700	-0.0981500	0.1877500	0.2123800	-0.0678900	0.1324500	-0.1801600	-0.0380300	0.2533200	0.5813300	-0.3320200	0.1502200	0.2130400	-0.3353500	0.0907500	-0.1725000	-0.3707900	0.2622300	-0.2304000	-0.4385200	0.2569600	-0.2291300	-0.4365600	0.0523900	-0.2061100	-0.3570700	0.3182200	-0.2331000	-0.0015000	0.3144100	-0.2307100	-0.0018300	0.0960400	-0.2105300	-0.0382100
61	1.0000000	0.2671900	1.1346400	-0.2308800	0.2842700	1.1369200	-0.0543300	0.3353200	0.9244300	0.1229000	0.4175900	0.7538300	0.3205800	0.2602400	1.1308300	-0.4100900	0.3089200	0.9470800	-0.5952300	0.3785800	0.7723300	-0.7858900	0.2699100	0.5873200	-0.2142500	0.2912900	0.5938500	-0.0980900	0.1878200	0.2123300	-0.0678700	0.1325000	-0.1801800	-0.0379700	0.2534600	0.5812000	-0.3320900	0.1502500	0.2129400	-0.3353400	0.0907000	-0.1725300	-0.3708400	0.2622500	-0.2303600	-0.4384300	0.2569800	-0.2291000	-0.4364700	0.0523000	-0.2061800	-0.3570600	0.3183400	-0.2330900	-0.0016300	0.3145300	-0.2307000	-0.0019400	0.0961700	-0.2105900	-0.0382400
62	1.0166667	0.2672300	1.1345800	-0.2308600	0.2842900	1.1368600	-0.0542300	0.3351100	0.9245600	0.1227500	0.4175700	0.7538400	0.3205300	0.2603000	1.1307400	-0.4101300	0.3089200	0.9469700	-0.5951700	0.3787000	0.7724400	-0.7859900	0.2700000	0.5873600	-0.2142000	0.2913200	0.5939100	-0.0979800	0.1879000	0.2122800	-0.0678000	0.1325800	-0.1801800	-0.0379200	0.2535900	0.5812500	-0.3320700	0.1503400	0.2127800	-0.3352900	0.0906800	-0.1725600	-0.3708900	0.2622900	-0.2303200	-0.4384000	0.2570200	-0.2290700	-0.4364500	0.0521100	-0.2061900	-0.3570700	0.3184600	-0.2330700	-0.0017200	0.3146600	-0.2306700	-0.0020500	0.0962500	-0.2106500	-0.0381900
63	1.0333333	0.2672600	1.1345600	-0.2308400	0.2842900	1.1369300	-0.0541600	0.3348800	0.9246500	0.1226200	0.4175600	0.7538200	0.3204900	0.2603600	1.1306700	-0.4101700	0.3089200	0.9468700	-0.5951500	0.3788800	0.7725400	-0.7860000	0.2700200	0.5873500	-0.2141600	0.2913400	0.5940000	-0.0979200	0.1879500	0.2123000	-0.0677900	0.1326600	-0.1801600	-0.0378800	0.2536000	0.5811500	-0.3320800	0.1504000	0.2127700	-0.3352600	0.0906600	-0.1725500	-0.3709200	0.2623400	-0.2302800	-0.4384300	0.2570800	-0.2290300	-0.4364800	0.0521100	-0.2062000	-0.3570700	0.3185800	-0.2330000	-0.0017700	0.3147800	-0.2306000	-0.0020900	0.0964100	-0.2106100	-0.0381100
64	1.0500000	0.2672900	1.1345500	-0.2308100	0.2843000	1.1369600	-0.0540600	0.3346200	0.9247600	0.1224900	0.4175400	0.7538100	0.3204800	0.2604300	1.1305900	-0.4101900	0.3089200	0.9467200	-0.5951700	0.3791000	0.7727700	-0.7859200	0.2700300	0.5872900	-0.2141000	0.2913700	0.5939400	-0.0978500	0.1880100	0.2123400	-0.0677400	0.1327500	-0.1801200	-0.0378600	0.2536200	0.5811100	-0.3320200	0.1504600	0.2128100	-0.3352400	0.0906700	-0.1725400	-0.3709400	0.2624000	-0.2302700	-0.4384900	0.2571200	-0.2290200	-0.4365400	0.0520700	-0.2061200	-0.3571100	0.3187000	-0.2329300	-0.0017600	0.3149000	-0.2305300	-0.0020900	0.0965200	-0.2106700	-0.0381200
65	1.0666667	0.2673000	1.1345500	-0.2307800	0.2842900	1.1370200	-0.0539700	0.3343900	0.9248800	0.1224000	0.4175200	0.7537400	0.3204900	0.2604700	1.1305400	-0.4102200	0.3089000	0.9465800	-0.5952400	0.3793400	0.7728700	-0.7857400	0.2700800	0.5870200	-0.2140100	0.2913600	0.5937300	-0.0977100	0.1880100	0.2124300	-0.0677400	0.1328200	-0.1800900	-0.0378800	0.2536900	0.5808300	-0.3319700	0.1505500	0.2128300	-0.3351900	0.0907100	-0.1725200	-0.3709300	0.2624500	-0.2302200	-0.4386200	0.2571700	-0.2289800	-0.4366900	0.0520900	-0.2060800	-0.3570500	0.3188000	-0.2328100	-0.0017100	0.3150000	-0.2304100	-0.0020500	0.0966900	-0.2107200	-0.0382900
66	1.0833333	0.2672900	1.1345600	-0.2307300	0.2842600	1.1370600	-0.0538600	0.3342000	0.9249100	0.1223200	0.4175100	0.7536500	0.3205100	0.2604800	1.1305000	-0.4102300	0.3088500	0.9464500	-0.5953500	0.3795400	0.7731200	-0.7855300	0.2701400	0.5866600	-0.2139100	0.2913600	0.5934200	-0.0975500	0.1880400	0.2125500	-0.0677300	0.1328800	-0.1800600	-0.0379100	0.2538400	0.5807200	-0.3318400	0.1506400	0.2128700	-0.3351200	0.0907600	-0.1724500	-0.3709300	0.2625100	-0.2302700	-0.4386700	0.2572200	-0.2290100	-0.4367100	0.0522300	-0.2061900	-0.3567700	0.3188900	-0.2327400	-0.0016200	0.3150700	-0.2303300	-0.0019800	0.0969200	-0.2109300	-0.0388300
67	1.1000000	0.2672600	1.1346100	-0.2306700	0.2842000	1.1371500	-0.0538100	0.3340800	0.9249400	0.1223200	0.4174900	0.7534800	0.3205500	0.2604800	1.1305200	-0.4101700	0.3087500	0.9463400	-0.5954400	0.3796700	0.7732300	-0.7853400	0.2701300	0.5868100	-0.2138900	0.2913100	0.5935800	-0.0976300	0.1880300	0.2126700	-0.0677300	0.1329000	-0.1799300	-0.0379500	0.2538600	0.5806500	-0.3317900	0.1507500	0.2129800	-0.3350800	0.0908200	-0.1724600	-0.3709400	0.2625500	-0.2301900	-0.4388300	0.2572700	-0.2289600	-0.4369000	0.0522300	-0.2060000	-0.3570100	0.3189100	-0.2326100	-0.0015100	0.3151000	-0.2302100	-0.0018600	0.0969200	-0.2105200	-0.0384000
